<svg width="595" height="372" viewBox="0 0 595 372" fill="none" xmlns="http://www.w3.org/2000/svg">
<rect x="85.0586" y="1" width="301" height="79" rx="39.5" fill="white"/>
<rect x="85.0586" y="1" width="301" height="79" rx="39.5" stroke="#0866FF"/>
<path d="M119.016 48.5352C119.016 49.3815 118.811 50.1172 118.4 50.7422C117.99 51.3672 117.391 51.849 116.604 52.1875C115.822 52.526 114.872 52.6953 113.752 52.6953C113.257 52.6953 112.772 52.6628 112.297 52.5977C111.828 52.5326 111.376 52.4382 110.939 52.3145C110.51 52.1842 110.1 52.0247 109.709 51.8359V49.0234C110.386 49.3229 111.089 49.5931 111.818 49.834C112.548 50.0749 113.27 50.1953 113.986 50.1953C114.481 50.1953 114.878 50.1302 115.178 50C115.484 49.8698 115.705 49.6908 115.842 49.4629C115.979 49.235 116.047 48.9746 116.047 48.6816C116.047 48.3236 115.926 48.0176 115.686 47.7637C115.445 47.5098 115.113 47.2721 114.689 47.0508C114.273 46.8294 113.801 46.5918 113.273 46.3379C112.941 46.1816 112.58 45.9928 112.189 45.7715C111.799 45.5436 111.428 45.2669 111.076 44.9414C110.725 44.6159 110.435 44.222 110.207 43.7598C109.986 43.291 109.875 42.7311 109.875 42.0801C109.875 41.2272 110.07 40.498 110.461 39.8926C110.852 39.2871 111.408 38.8249 112.131 38.5059C112.86 38.1803 113.719 38.0176 114.709 38.0176C115.451 38.0176 116.158 38.1055 116.828 38.2812C117.505 38.4505 118.212 38.6979 118.947 39.0234L117.971 41.377C117.313 41.11 116.724 40.9049 116.203 40.7617C115.682 40.612 115.152 40.5371 114.611 40.5371C114.234 40.5371 113.911 40.599 113.645 40.7227C113.378 40.8398 113.176 41.0091 113.039 41.2305C112.902 41.4453 112.834 41.696 112.834 41.9824C112.834 42.321 112.932 42.6074 113.127 42.8418C113.329 43.0697 113.628 43.291 114.025 43.5059C114.429 43.7207 114.93 43.9714 115.529 44.2578C116.258 44.6029 116.88 44.9642 117.395 45.3418C117.915 45.7129 118.316 46.1523 118.596 46.6602C118.876 47.1615 119.016 47.7865 119.016 48.5352ZM124.348 41.582V52.5H121.369V41.582H124.348ZM122.863 37.3047C123.306 37.3047 123.687 37.4089 124.006 37.6172C124.325 37.819 124.484 38.1999 124.484 38.7598C124.484 39.3132 124.325 39.6973 124.006 39.9121C123.687 40.1204 123.306 40.2246 122.863 40.2246C122.414 40.2246 122.03 40.1204 121.711 39.9121C121.398 39.6973 121.242 39.3132 121.242 38.7598C121.242 38.1999 121.398 37.819 121.711 37.6172C122.03 37.4089 122.414 37.3047 122.863 37.3047ZM130.676 57.3047C129.152 57.3047 127.987 57.0378 127.18 56.5039C126.379 55.9766 125.979 55.2344 125.979 54.2773C125.979 53.6198 126.184 53.0697 126.594 52.627C127.004 52.1842 127.606 51.8685 128.4 51.6797C128.094 51.5495 127.827 51.3379 127.6 51.0449C127.372 50.7454 127.258 50.4297 127.258 50.0977C127.258 49.681 127.378 49.3359 127.619 49.0625C127.86 48.7826 128.208 48.5091 128.664 48.2422C128.091 47.9948 127.635 47.5977 127.297 47.0508C126.965 46.5039 126.799 45.8594 126.799 45.1172C126.799 44.3229 126.971 43.6491 127.316 43.0957C127.668 42.5358 128.176 42.1094 128.84 41.8164C129.51 41.5234 130.324 41.377 131.281 41.377C131.483 41.377 131.717 41.39 131.984 41.416C132.251 41.4421 132.495 41.4714 132.717 41.5039C132.945 41.5365 133.098 41.5625 133.176 41.582H136.984V43.0957L135.275 43.5352C135.432 43.776 135.549 44.0332 135.627 44.3066C135.705 44.5801 135.744 44.8698 135.744 45.1758C135.744 46.3477 135.334 47.2624 134.514 47.9199C133.7 48.571 132.567 48.8965 131.115 48.8965C130.77 48.877 130.445 48.8509 130.139 48.8184C129.989 48.9355 129.875 49.0592 129.797 49.1895C129.719 49.3197 129.68 49.4564 129.68 49.5996C129.68 49.7428 129.738 49.8633 129.855 49.9609C129.979 50.0521 130.161 50.1237 130.402 50.1758C130.65 50.2214 130.956 50.2441 131.32 50.2441H133.176C134.374 50.2441 135.285 50.5013 135.91 51.0156C136.542 51.5299 136.857 52.2852 136.857 53.2812C136.857 54.5573 136.324 55.5469 135.256 56.25C134.195 56.9531 132.668 57.3047 130.676 57.3047ZM130.803 55.3613C131.512 55.3613 132.121 55.293 132.629 55.1562C133.143 55.026 133.537 54.8372 133.811 54.5898C134.084 54.349 134.221 54.0592 134.221 53.7207C134.221 53.4473 134.139 53.2292 133.977 53.0664C133.82 52.9102 133.579 52.7995 133.254 52.7344C132.935 52.6693 132.525 52.6367 132.023 52.6367H130.48C130.116 52.6367 129.787 52.6953 129.494 52.8125C129.208 52.9297 128.98 53.0924 128.811 53.3008C128.641 53.5156 128.557 53.763 128.557 54.043C128.557 54.4531 128.752 54.7754 129.143 55.0098C129.54 55.2441 130.093 55.3613 130.803 55.3613ZM131.281 47.0801C131.841 47.0801 132.251 46.9076 132.512 46.5625C132.772 46.2174 132.902 45.7487 132.902 45.1562C132.902 44.4987 132.766 44.0072 132.492 43.6816C132.225 43.3496 131.822 43.1836 131.281 43.1836C130.734 43.1836 130.324 43.3496 130.051 43.6816C129.777 44.0072 129.641 44.4987 129.641 45.1562C129.641 45.7487 129.774 46.2174 130.041 46.5625C130.314 46.9076 130.728 47.0801 131.281 47.0801ZM144.992 41.377C146.158 41.377 147.095 41.696 147.805 42.334C148.514 42.9655 148.869 43.9811 148.869 45.3809V52.5H145.891V46.123C145.891 45.3418 145.747 44.7526 145.461 44.3555C145.181 43.9583 144.738 43.7598 144.133 43.7598C143.221 43.7598 142.6 44.069 142.268 44.6875C141.936 45.306 141.77 46.1979 141.77 47.3633V52.5H138.791V41.582H141.066L141.467 42.9785H141.633C141.867 42.6009 142.157 42.2949 142.502 42.0605C142.854 41.8262 143.241 41.6536 143.664 41.543C144.094 41.4323 144.536 41.377 144.992 41.377ZM167.15 41.582V52.5H164.865L164.465 51.1035H164.309C164.074 51.4746 163.781 51.7773 163.43 52.0117C163.078 52.2461 162.691 52.4186 162.268 52.5293C161.844 52.64 161.405 52.6953 160.949 52.6953C160.168 52.6953 159.488 52.5586 158.908 52.2852C158.329 52.0052 157.876 51.5723 157.551 50.9863C157.232 50.4004 157.072 49.6387 157.072 48.7012V41.582H160.051V47.959C160.051 48.7402 160.191 49.3294 160.471 49.7266C160.751 50.1237 161.197 50.3223 161.809 50.3223C162.414 50.3223 162.889 50.1855 163.234 49.9121C163.579 49.6322 163.82 49.2253 163.957 48.6914C164.1 48.151 164.172 47.4935 164.172 46.7188V41.582H167.15ZM176.35 41.377C177.58 41.377 178.573 41.8555 179.328 42.8125C180.09 43.7695 180.471 45.1725 180.471 47.0215C180.471 48.2585 180.292 49.3001 179.934 50.1465C179.576 50.9863 179.081 51.6211 178.449 52.0508C177.818 52.4805 177.092 52.6953 176.271 52.6953C175.744 52.6953 175.292 52.6302 174.914 52.5C174.536 52.3633 174.214 52.1908 173.947 51.9824C173.68 51.7676 173.449 51.5397 173.254 51.2988H173.098C173.15 51.5592 173.189 51.8262 173.215 52.0996C173.241 52.373 173.254 52.64 173.254 52.9004V57.3047H170.275V41.582H172.697L173.117 42.998H173.254C173.449 42.7051 173.687 42.4349 173.967 42.1875C174.247 41.9401 174.582 41.7448 174.973 41.6016C175.37 41.4518 175.829 41.377 176.35 41.377ZM175.393 43.7598C174.872 43.7598 174.458 43.8672 174.152 44.082C173.846 44.2969 173.622 44.6191 173.479 45.0488C173.342 45.4785 173.267 46.0221 173.254 46.6797V47.002C173.254 47.7051 173.319 48.3008 173.449 48.7891C173.586 49.2773 173.811 49.6484 174.123 49.9023C174.442 50.1562 174.878 50.2832 175.432 50.2832C175.887 50.2832 176.262 50.1562 176.555 49.9023C176.848 49.6484 177.066 49.2773 177.209 48.7891C177.359 48.2943 177.434 47.6921 177.434 46.9824C177.434 45.9147 177.268 45.1107 176.936 44.5703C176.604 44.0299 176.089 43.7598 175.393 43.7598ZM197.102 52.5L196.262 48.6816C196.216 48.4538 196.141 48.1185 196.037 47.6758C195.933 47.2266 195.819 46.748 195.695 46.2402C195.578 45.7259 195.467 45.2507 195.363 44.8145C195.266 44.3783 195.194 44.0592 195.148 43.8574H195.061C195.015 44.0592 194.943 44.3783 194.846 44.8145C194.748 45.2507 194.637 45.7259 194.514 46.2402C194.396 46.7546 194.286 47.2396 194.182 47.6953C194.077 48.1445 193.999 48.4863 193.947 48.7207L193.068 52.5H189.865L186.76 41.582H189.729L190.988 46.416C191.073 46.7546 191.154 47.1582 191.232 47.627C191.311 48.0892 191.379 48.5384 191.438 48.9746C191.503 49.4043 191.551 49.7461 191.584 50H191.662C191.675 49.8112 191.701 49.5605 191.74 49.248C191.786 48.9355 191.835 48.6133 191.887 48.2812C191.945 47.9427 191.997 47.64 192.043 47.373C192.095 47.0996 192.134 46.9141 192.16 46.8164L193.508 41.582H196.789L198.068 46.8164C198.114 47.0052 198.173 47.3047 198.244 47.7148C198.322 48.125 198.391 48.5482 198.449 48.9844C198.508 49.4141 198.54 49.7526 198.547 50H198.625C198.651 49.7786 198.697 49.4499 198.762 49.0137C198.827 48.5775 198.902 48.1217 198.986 47.6465C199.077 47.1647 199.169 46.7546 199.26 46.416L200.568 41.582H203.488L200.344 52.5H197.102ZM208.234 41.582V52.5H205.256V41.582H208.234ZM206.75 37.3047C207.193 37.3047 207.574 37.4089 207.893 37.6172C208.212 37.819 208.371 38.1999 208.371 38.7598C208.371 39.3132 208.212 39.6973 207.893 39.9121C207.574 40.1204 207.193 40.2246 206.75 40.2246C206.301 40.2246 205.917 40.1204 205.598 39.9121C205.285 39.6973 205.129 39.3132 205.129 38.7598C205.129 38.1999 205.285 37.819 205.598 37.6172C205.917 37.4089 206.301 37.3047 206.75 37.3047ZM215.969 50.3223C216.294 50.3223 216.61 50.2897 216.916 50.2246C217.229 50.1595 217.538 50.0781 217.844 49.9805V52.1973C217.525 52.3405 217.128 52.4577 216.652 52.5488C216.184 52.6465 215.669 52.6953 215.109 52.6953C214.458 52.6953 213.872 52.5911 213.352 52.3828C212.837 52.168 212.43 51.8001 212.131 51.2793C211.838 50.752 211.691 50.0195 211.691 49.082V43.8184H210.266V42.5586L211.906 41.5625L212.766 39.2578H214.67V41.582H217.727V43.8184H214.67V49.082C214.67 49.4987 214.787 49.8112 215.021 50.0195C215.262 50.2214 215.578 50.3223 215.969 50.3223ZM223.039 37.3047V40.4004C223.039 40.9408 223.02 41.4551 222.98 41.9434C222.948 42.4316 222.922 42.7767 222.902 42.9785H223.059C223.293 42.6009 223.57 42.2949 223.889 42.0605C224.214 41.8262 224.572 41.6536 224.963 41.543C225.354 41.4323 225.773 41.377 226.223 41.377C227.01 41.377 227.697 41.5169 228.283 41.7969C228.869 42.0703 229.325 42.5033 229.65 43.0957C229.976 43.6816 230.139 44.4434 230.139 45.3809V52.5H227.16V46.123C227.16 45.3418 227.017 44.7526 226.73 44.3555C226.444 43.9583 226.001 43.7598 225.402 43.7598C224.803 43.7598 224.331 43.8997 223.986 44.1797C223.641 44.4531 223.397 44.86 223.254 45.4004C223.111 45.9342 223.039 46.5885 223.039 47.3633V52.5H220.061V37.3047H223.039ZM238.635 52.5V38.2227H241.662V52.5H238.635ZM251.223 41.377C252.388 41.377 253.326 41.696 254.035 42.334C254.745 42.9655 255.1 43.9811 255.1 45.3809V52.5H252.121V46.123C252.121 45.3418 251.978 44.7526 251.691 44.3555C251.411 43.9583 250.969 43.7598 250.363 43.7598C249.452 43.7598 248.83 44.069 248.498 44.6875C248.166 45.306 248 46.1979 248 47.3633V52.5H245.021V41.582H247.297L247.697 42.9785H247.863C248.098 42.6009 248.387 42.2949 248.732 42.0605C249.084 41.8262 249.471 41.6536 249.895 41.543C250.324 41.4323 250.767 41.377 251.223 41.377ZM265.783 49.2578C265.783 50 265.607 50.6283 265.256 51.1426C264.911 51.6504 264.393 52.0378 263.703 52.3047C263.013 52.5651 262.154 52.6953 261.125 52.6953C260.363 52.6953 259.709 52.6465 259.162 52.5488C258.622 52.4512 258.075 52.2884 257.521 52.0605V49.5996C258.114 49.8665 258.749 50.0879 259.426 50.2637C260.109 50.4329 260.708 50.5176 261.223 50.5176C261.802 50.5176 262.215 50.4329 262.463 50.2637C262.717 50.0879 262.844 49.86 262.844 49.5801C262.844 49.3978 262.792 49.235 262.688 49.0918C262.59 48.9421 262.375 48.776 262.043 48.5938C261.711 48.4049 261.19 48.1608 260.48 47.8613C259.797 47.5749 259.234 47.2852 258.791 46.9922C258.355 46.6992 258.029 46.3542 257.814 45.957C257.606 45.5534 257.502 45.0423 257.502 44.4238C257.502 43.4147 257.893 42.6562 258.674 42.1484C259.462 41.6341 260.513 41.377 261.828 41.377C262.505 41.377 263.15 41.4453 263.762 41.582C264.38 41.7188 265.015 41.9368 265.666 42.2363L264.768 44.3848C264.227 44.1504 263.716 43.9583 263.234 43.8086C262.759 43.6589 262.274 43.584 261.779 43.584C261.343 43.584 261.014 43.6426 260.793 43.7598C260.572 43.877 260.461 44.056 260.461 44.2969C260.461 44.4727 260.516 44.6289 260.627 44.7656C260.744 44.9023 260.965 45.0553 261.291 45.2246C261.623 45.3874 262.108 45.599 262.746 45.8594C263.365 46.1133 263.902 46.3802 264.357 46.6602C264.813 46.9336 265.165 47.2754 265.412 47.6855C265.66 48.0892 265.783 48.6133 265.783 49.2578ZM272.707 50.3223C273.033 50.3223 273.348 50.2897 273.654 50.2246C273.967 50.1595 274.276 50.0781 274.582 49.9805V52.1973C274.263 52.3405 273.866 52.4577 273.391 52.5488C272.922 52.6465 272.408 52.6953 271.848 52.6953C271.197 52.6953 270.611 52.5911 270.09 52.3828C269.576 52.168 269.169 51.8001 268.869 51.2793C268.576 50.752 268.43 50.0195 268.43 49.082V43.8184H267.004V42.5586L268.645 41.5625L269.504 39.2578H271.408V41.582H274.465V43.8184H271.408V49.082C271.408 49.4987 271.525 49.8112 271.76 50.0195C272.001 50.2214 272.316 50.3223 272.707 50.3223ZM281.271 41.3574C282.736 41.3574 283.859 41.6764 284.641 42.3145C285.422 42.9525 285.812 43.9225 285.812 45.2246V52.5H283.732L283.156 51.0156H283.078C282.766 51.4062 282.447 51.7253 282.121 51.9727C281.796 52.2201 281.421 52.4023 280.998 52.5195C280.575 52.6367 280.061 52.6953 279.455 52.6953C278.811 52.6953 278.231 52.5716 277.717 52.3242C277.209 52.0768 276.809 51.6992 276.516 51.1914C276.223 50.6771 276.076 50.026 276.076 49.2383C276.076 48.0794 276.483 47.2266 277.297 46.6797C278.111 46.1263 279.331 45.8203 280.959 45.7617L282.854 45.7031V45.2246C282.854 44.6517 282.704 44.2318 282.404 43.9648C282.105 43.6979 281.688 43.5645 281.154 43.5645C280.627 43.5645 280.109 43.6393 279.602 43.7891C279.094 43.9388 278.586 44.1276 278.078 44.3555L277.092 42.3438C277.671 42.0378 278.319 41.7969 279.035 41.6211C279.758 41.4453 280.503 41.3574 281.271 41.3574ZM282.854 47.4414L281.701 47.4805C280.738 47.5065 280.067 47.679 279.689 47.998C279.318 48.3171 279.133 48.737 279.133 49.2578C279.133 49.7135 279.266 50.0391 279.533 50.2344C279.8 50.4232 280.148 50.5176 280.578 50.5176C281.216 50.5176 281.753 50.3288 282.189 49.9512C282.632 49.5736 282.854 49.0365 282.854 48.3398V47.4414ZM301.711 41.377C302.948 41.377 303.882 41.696 304.514 42.334C305.152 42.9655 305.471 43.9811 305.471 45.3809V52.5H302.482V46.123C302.482 45.3418 302.349 44.7526 302.082 44.3555C301.815 43.9583 301.402 43.7598 300.842 43.7598C300.054 43.7598 299.494 44.043 299.162 44.6094C298.83 45.1693 298.664 45.9733 298.664 47.0215V52.5H295.686V46.123C295.686 45.6022 295.627 45.166 295.51 44.8145C295.393 44.4629 295.214 44.1992 294.973 44.0234C294.732 43.8477 294.423 43.7598 294.045 43.7598C293.492 43.7598 293.055 43.8997 292.736 44.1797C292.424 44.4531 292.199 44.86 292.062 45.4004C291.932 45.9342 291.867 46.5885 291.867 47.3633V52.5H288.889V41.582H291.164L291.564 42.9785H291.73C291.952 42.6009 292.229 42.2949 292.561 42.0605C292.899 41.8262 293.27 41.6536 293.674 41.543C294.077 41.4323 294.488 41.377 294.904 41.377C295.705 41.377 296.382 41.5072 296.936 41.7676C297.495 42.028 297.925 42.4316 298.225 42.9785H298.488C298.814 42.4186 299.273 42.0117 299.865 41.7578C300.464 41.5039 301.079 41.377 301.711 41.377ZM313.039 41.377C314.048 41.377 314.917 41.5723 315.646 41.9629C316.376 42.347 316.939 42.9069 317.336 43.6426C317.733 44.3783 317.932 45.2767 317.932 46.3379V47.7832H310.891C310.923 48.623 311.174 49.2839 311.643 49.7656C312.118 50.2409 312.775 50.4785 313.615 50.4785C314.312 50.4785 314.95 50.4069 315.529 50.2637C316.109 50.1204 316.704 49.9056 317.316 49.6191V51.9238C316.776 52.1908 316.21 52.3861 315.617 52.5098C315.031 52.6335 314.318 52.6953 313.479 52.6953C312.385 52.6953 311.415 52.4935 310.568 52.0898C309.729 51.6862 309.068 51.071 308.586 50.2441C308.111 49.4173 307.873 48.3757 307.873 47.1191C307.873 45.8431 308.088 44.7819 308.518 43.9355C308.954 43.0827 309.559 42.4447 310.334 42.0215C311.109 41.5918 312.01 41.377 313.039 41.377ZM313.059 43.4961C312.479 43.4961 311.997 43.6816 311.613 44.0527C311.236 44.4238 311.018 45.0065 310.959 45.8008H315.139C315.132 45.3581 315.051 44.9642 314.895 44.6191C314.745 44.2741 314.517 44.0007 314.211 43.7988C313.911 43.597 313.527 43.4961 313.059 43.4961ZM323.811 52.6953C322.593 52.6953 321.6 52.2201 320.832 51.2695C320.07 50.3125 319.689 48.9095 319.689 47.0605C319.689 45.1921 320.077 43.7793 320.852 42.8223C321.626 41.8587 322.639 41.377 323.889 41.377C324.41 41.377 324.868 41.4486 325.266 41.5918C325.663 41.735 326.005 41.9271 326.291 42.168C326.584 42.4089 326.831 42.679 327.033 42.9785H327.131C327.092 42.7702 327.043 42.4642 326.984 42.0605C326.932 41.6504 326.906 41.2305 326.906 40.8008V37.3047H329.895V52.5H327.609L327.033 51.084H326.906C326.717 51.3835 326.48 51.6569 326.193 51.9043C325.913 52.1452 325.578 52.3372 325.188 52.4805C324.797 52.6237 324.338 52.6953 323.811 52.6953ZM324.855 50.3223C325.669 50.3223 326.242 50.0814 326.574 49.5996C326.913 49.1113 327.092 48.3789 327.111 47.4023V47.0801C327.111 46.0189 326.949 45.2083 326.623 44.6484C326.298 44.082 325.692 43.7988 324.807 43.7988C324.149 43.7988 323.635 44.082 323.264 44.6484C322.893 45.2148 322.707 46.0319 322.707 47.0996C322.707 48.1673 322.893 48.9714 323.264 49.5117C323.641 50.0521 324.172 50.3223 324.855 50.3223ZM335.988 41.582V52.5H333.01V41.582H335.988ZM334.504 37.3047C334.947 37.3047 335.327 37.4089 335.646 37.6172C335.965 37.819 336.125 38.1999 336.125 38.7598C336.125 39.3132 335.965 39.6973 335.646 39.9121C335.327 40.1204 334.947 40.2246 334.504 40.2246C334.055 40.2246 333.671 40.1204 333.352 39.9121C333.039 39.6973 332.883 39.3132 332.883 38.7598C332.883 38.1999 333.039 37.819 333.352 37.6172C333.671 37.4089 334.055 37.3047 334.504 37.3047ZM343.518 38.2227C344.813 38.2227 345.881 38.3789 346.721 38.6914C347.567 39.0039 348.195 39.4759 348.605 40.1074C349.016 40.7389 349.221 41.5365 349.221 42.5C349.221 43.151 349.097 43.7207 348.85 44.209C348.602 44.6973 348.277 45.1107 347.873 45.4492C347.469 45.7878 347.033 46.0645 346.564 46.2793L350.764 52.5H347.404L343.996 47.0215H342.385V52.5H339.357V38.2227H343.518ZM343.303 40.7031H342.385V44.5605H343.361C344.364 44.5605 345.08 44.3945 345.51 44.0625C345.946 43.724 346.164 43.2292 346.164 42.5781C346.164 41.901 345.93 41.4193 345.461 41.1328C344.999 40.8464 344.279 40.7031 343.303 40.7031ZM354.562 46.9238L351.047 41.582H354.426L356.545 45.0586L358.684 41.582H362.062L358.508 46.9238L362.229 52.5H358.84L356.545 48.7598L354.24 52.5H350.861L354.562 46.9238Z" fill="#0866FF"/>
<rect x="85.0586" y="292" width="301" height="79" rx="39.5" fill="white"/>
<rect x="85.0586" y="292" width="301" height="79" rx="39.5" stroke="#0866FF"/>
<path d="M126.359 336.342C126.359 337.442 126.223 338.445 125.949 339.35C125.676 340.248 125.259 341.023 124.699 341.674C124.146 342.325 123.443 342.826 122.59 343.178C121.737 343.523 120.728 343.695 119.562 343.695C118.397 343.695 117.388 343.523 116.535 343.178C115.682 342.826 114.976 342.325 114.416 341.674C113.863 341.023 113.449 340.245 113.176 339.34C112.902 338.435 112.766 337.429 112.766 336.322C112.766 334.844 113.007 333.559 113.488 332.465C113.977 331.365 114.725 330.512 115.734 329.906C116.743 329.301 118.026 328.998 119.582 328.998C121.132 328.998 122.404 329.301 123.4 329.906C124.403 330.512 125.145 331.365 125.627 332.465C126.115 333.565 126.359 334.857 126.359 336.342ZM115.939 336.342C115.939 337.338 116.063 338.197 116.311 338.92C116.564 339.636 116.958 340.189 117.492 340.58C118.026 340.964 118.716 341.156 119.562 341.156C120.422 341.156 121.118 340.964 121.652 340.58C122.186 340.189 122.574 339.636 122.814 338.92C123.062 338.197 123.186 337.338 123.186 336.342C123.186 334.844 122.906 333.666 122.346 332.807C121.786 331.947 120.865 331.518 119.582 331.518C118.729 331.518 118.033 331.713 117.492 332.104C116.958 332.488 116.564 333.041 116.311 333.764C116.063 334.48 115.939 335.339 115.939 336.342ZM135.178 332.377C135.327 332.377 135.5 332.387 135.695 332.406C135.897 332.419 136.06 332.439 136.184 332.465L135.959 335.258C135.861 335.225 135.721 335.202 135.539 335.189C135.363 335.17 135.21 335.16 135.08 335.16C134.696 335.16 134.322 335.209 133.957 335.307C133.599 335.404 133.277 335.564 132.99 335.785C132.704 336 132.476 336.286 132.307 336.645C132.144 336.996 132.062 337.429 132.062 337.943V343.5H129.084V332.582H131.34L131.779 334.418H131.926C132.141 334.047 132.408 333.708 132.727 333.402C133.052 333.09 133.42 332.842 133.83 332.66C134.247 332.471 134.696 332.377 135.178 332.377ZM141.623 343.695C140.406 343.695 139.413 343.22 138.645 342.27C137.883 341.312 137.502 339.91 137.502 338.061C137.502 336.192 137.889 334.779 138.664 333.822C139.439 332.859 140.451 332.377 141.701 332.377C142.222 332.377 142.681 332.449 143.078 332.592C143.475 332.735 143.817 332.927 144.104 333.168C144.396 333.409 144.644 333.679 144.846 333.979H144.943C144.904 333.77 144.855 333.464 144.797 333.061C144.745 332.65 144.719 332.23 144.719 331.801V328.305H147.707V343.5H145.422L144.846 342.084H144.719C144.53 342.383 144.292 342.657 144.006 342.904C143.726 343.145 143.391 343.337 143 343.48C142.609 343.624 142.15 343.695 141.623 343.695ZM142.668 341.322C143.482 341.322 144.055 341.081 144.387 340.6C144.725 340.111 144.904 339.379 144.924 338.402V338.08C144.924 337.019 144.761 336.208 144.436 335.648C144.11 335.082 143.505 334.799 142.619 334.799C141.962 334.799 141.447 335.082 141.076 335.648C140.705 336.215 140.52 337.032 140.52 338.1C140.52 339.167 140.705 339.971 141.076 340.512C141.454 341.052 141.984 341.322 142.668 341.322ZM155.324 332.377C156.333 332.377 157.202 332.572 157.932 332.963C158.661 333.347 159.224 333.907 159.621 334.643C160.018 335.378 160.217 336.277 160.217 337.338V338.783H153.176C153.208 339.623 153.459 340.284 153.928 340.766C154.403 341.241 155.061 341.479 155.9 341.479C156.597 341.479 157.235 341.407 157.814 341.264C158.394 341.12 158.99 340.906 159.602 340.619V342.924C159.061 343.191 158.495 343.386 157.902 343.51C157.316 343.633 156.604 343.695 155.764 343.695C154.67 343.695 153.7 343.493 152.854 343.09C152.014 342.686 151.353 342.071 150.871 341.244C150.396 340.417 150.158 339.376 150.158 338.119C150.158 336.843 150.373 335.782 150.803 334.936C151.239 334.083 151.844 333.445 152.619 333.021C153.394 332.592 154.296 332.377 155.324 332.377ZM155.344 334.496C154.764 334.496 154.283 334.682 153.898 335.053C153.521 335.424 153.303 336.007 153.244 336.801H157.424C157.417 336.358 157.336 335.964 157.18 335.619C157.03 335.274 156.802 335.001 156.496 334.799C156.197 334.597 155.812 334.496 155.344 334.496ZM168.732 332.377C168.882 332.377 169.055 332.387 169.25 332.406C169.452 332.419 169.615 332.439 169.738 332.465L169.514 335.258C169.416 335.225 169.276 335.202 169.094 335.189C168.918 335.17 168.765 335.16 168.635 335.16C168.251 335.16 167.876 335.209 167.512 335.307C167.154 335.404 166.831 335.564 166.545 335.785C166.258 336 166.031 336.286 165.861 336.645C165.699 336.996 165.617 337.429 165.617 337.943V343.5H162.639V332.582H164.895L165.334 334.418H165.48C165.695 334.047 165.962 333.708 166.281 333.402C166.607 333.09 166.975 332.842 167.385 332.66C167.801 332.471 168.251 332.377 168.732 332.377ZM183.195 343.5L179.758 332.299H179.67C179.683 332.566 179.702 332.969 179.729 333.51C179.761 334.044 179.79 334.613 179.816 335.219C179.842 335.824 179.855 336.371 179.855 336.859V343.5H177.15V329.223H181.271L184.65 340.141H184.709L188.293 329.223H192.414V343.5H189.592V336.742C189.592 336.293 189.598 335.775 189.611 335.189C189.631 334.604 189.654 334.047 189.68 333.52C189.706 332.986 189.725 332.585 189.738 332.318H189.65L185.969 343.5H183.195ZM200.285 332.377C201.294 332.377 202.163 332.572 202.893 332.963C203.622 333.347 204.185 333.907 204.582 334.643C204.979 335.378 205.178 336.277 205.178 337.338V338.783H198.137C198.169 339.623 198.42 340.284 198.889 340.766C199.364 341.241 200.021 341.479 200.861 341.479C201.558 341.479 202.196 341.407 202.775 341.264C203.355 341.12 203.951 340.906 204.562 340.619V342.924C204.022 343.191 203.456 343.386 202.863 343.51C202.277 343.633 201.564 343.695 200.725 343.695C199.631 343.695 198.661 343.493 197.814 343.09C196.975 342.686 196.314 342.071 195.832 341.244C195.357 340.417 195.119 339.376 195.119 338.119C195.119 336.843 195.334 335.782 195.764 334.936C196.2 334.083 196.805 333.445 197.58 333.021C198.355 332.592 199.257 332.377 200.285 332.377ZM200.305 334.496C199.725 334.496 199.243 334.682 198.859 335.053C198.482 335.424 198.264 336.007 198.205 336.801H202.385C202.378 336.358 202.297 335.964 202.141 335.619C201.991 335.274 201.763 335.001 201.457 334.799C201.158 334.597 200.773 334.496 200.305 334.496ZM211.057 343.695C209.839 343.695 208.846 343.22 208.078 342.27C207.316 341.312 206.936 339.91 206.936 338.061C206.936 336.192 207.323 334.779 208.098 333.822C208.872 332.859 209.885 332.377 211.135 332.377C211.656 332.377 212.115 332.449 212.512 332.592C212.909 332.735 213.251 332.927 213.537 333.168C213.83 333.409 214.077 333.679 214.279 333.979H214.377C214.338 333.77 214.289 333.464 214.23 333.061C214.178 332.65 214.152 332.23 214.152 331.801V328.305H217.141V343.5H214.855L214.279 342.084H214.152C213.964 342.383 213.726 342.657 213.439 342.904C213.16 343.145 212.824 343.337 212.434 343.48C212.043 343.624 211.584 343.695 211.057 343.695ZM212.102 341.322C212.915 341.322 213.488 341.081 213.82 340.6C214.159 340.111 214.338 339.379 214.357 338.402V338.08C214.357 337.019 214.195 336.208 213.869 335.648C213.544 335.082 212.938 334.799 212.053 334.799C211.395 334.799 210.881 335.082 210.51 335.648C210.139 336.215 209.953 337.032 209.953 338.1C209.953 339.167 210.139 339.971 210.51 340.512C210.887 341.052 211.418 341.322 212.102 341.322ZM223.234 332.582V343.5H220.256V332.582H223.234ZM221.75 328.305C222.193 328.305 222.574 328.409 222.893 328.617C223.212 328.819 223.371 329.2 223.371 329.76C223.371 330.313 223.212 330.697 222.893 330.912C222.574 331.12 222.193 331.225 221.75 331.225C221.301 331.225 220.917 331.12 220.598 330.912C220.285 330.697 220.129 330.313 220.129 329.76C220.129 329.2 220.285 328.819 220.598 328.617C220.917 328.409 221.301 328.305 221.75 328.305ZM230.803 343.695C229.722 343.695 228.801 343.5 228.039 343.109C227.277 342.712 226.698 342.1 226.301 341.273C225.904 340.447 225.705 339.389 225.705 338.1C225.705 336.765 225.93 335.678 226.379 334.838C226.835 333.992 227.463 333.37 228.264 332.973C229.071 332.576 230.005 332.377 231.066 332.377C231.822 332.377 232.473 332.452 233.02 332.602C233.573 332.745 234.055 332.917 234.465 333.119L233.586 335.424C233.117 335.235 232.681 335.082 232.277 334.965C231.874 334.841 231.47 334.779 231.066 334.779C230.546 334.779 230.113 334.903 229.768 335.15C229.423 335.391 229.165 335.756 228.996 336.244C228.827 336.732 228.742 337.344 228.742 338.08C228.742 338.803 228.833 339.402 229.016 339.877C229.198 340.352 229.462 340.707 229.807 340.941C230.152 341.169 230.572 341.283 231.066 341.283C231.685 341.283 232.235 341.202 232.717 341.039C233.199 340.87 233.667 340.635 234.123 340.336V342.885C233.667 343.171 233.189 343.376 232.688 343.5C232.193 343.63 231.564 343.695 230.803 343.695ZM241.135 332.357C242.6 332.357 243.723 332.676 244.504 333.314C245.285 333.952 245.676 334.923 245.676 336.225V343.5H243.596L243.02 342.016H242.941C242.629 342.406 242.31 342.725 241.984 342.973C241.659 343.22 241.285 343.402 240.861 343.52C240.438 343.637 239.924 343.695 239.318 343.695C238.674 343.695 238.094 343.572 237.58 343.324C237.072 343.077 236.672 342.699 236.379 342.191C236.086 341.677 235.939 341.026 235.939 340.238C235.939 339.079 236.346 338.227 237.16 337.68C237.974 337.126 239.195 336.82 240.822 336.762L242.717 336.703V336.225C242.717 335.652 242.567 335.232 242.268 334.965C241.968 334.698 241.551 334.564 241.018 334.564C240.49 334.564 239.973 334.639 239.465 334.789C238.957 334.939 238.449 335.128 237.941 335.355L236.955 333.344C237.535 333.038 238.182 332.797 238.898 332.621C239.621 332.445 240.367 332.357 241.135 332.357ZM242.717 338.441L241.564 338.48C240.601 338.507 239.93 338.679 239.553 338.998C239.182 339.317 238.996 339.737 238.996 340.258C238.996 340.714 239.13 341.039 239.396 341.234C239.663 341.423 240.012 341.518 240.441 341.518C241.079 341.518 241.617 341.329 242.053 340.951C242.495 340.574 242.717 340.036 242.717 339.34V338.441ZM253.352 341.322C253.677 341.322 253.993 341.29 254.299 341.225C254.611 341.16 254.921 341.078 255.227 340.98V343.197C254.908 343.34 254.51 343.458 254.035 343.549C253.566 343.646 253.052 343.695 252.492 343.695C251.841 343.695 251.255 343.591 250.734 343.383C250.22 343.168 249.813 342.8 249.514 342.279C249.221 341.752 249.074 341.02 249.074 340.082V334.818H247.648V333.559L249.289 332.562L250.148 330.258H252.053V332.582H255.109V334.818H252.053V340.082C252.053 340.499 252.17 340.811 252.404 341.02C252.645 341.221 252.961 341.322 253.352 341.322ZM260.422 332.582V343.5H257.443V332.582H260.422ZM258.938 328.305C259.38 328.305 259.761 328.409 260.08 328.617C260.399 328.819 260.559 329.2 260.559 329.76C260.559 330.313 260.399 330.697 260.08 330.912C259.761 331.12 259.38 331.225 258.938 331.225C258.488 331.225 258.104 331.12 257.785 330.912C257.473 330.697 257.316 330.313 257.316 329.76C257.316 329.2 257.473 328.819 257.785 328.617C258.104 328.409 258.488 328.305 258.938 328.305ZM273.479 338.021C273.479 338.933 273.355 339.74 273.107 340.443C272.867 341.146 272.512 341.742 272.043 342.23C271.581 342.712 271.021 343.077 270.363 343.324C269.712 343.572 268.977 343.695 268.156 343.695C267.388 343.695 266.682 343.572 266.037 343.324C265.399 343.077 264.842 342.712 264.367 342.23C263.898 341.742 263.534 341.146 263.273 340.443C263.02 339.74 262.893 338.933 262.893 338.021C262.893 336.811 263.107 335.785 263.537 334.945C263.967 334.105 264.579 333.467 265.373 333.031C266.167 332.595 267.115 332.377 268.215 332.377C269.237 332.377 270.142 332.595 270.93 333.031C271.724 333.467 272.346 334.105 272.795 334.945C273.251 335.785 273.479 336.811 273.479 338.021ZM265.93 338.021C265.93 338.738 266.008 339.34 266.164 339.828C266.32 340.316 266.564 340.684 266.896 340.932C267.229 341.179 267.661 341.303 268.195 341.303C268.723 341.303 269.149 341.179 269.475 340.932C269.807 340.684 270.048 340.316 270.197 339.828C270.354 339.34 270.432 338.738 270.432 338.021C270.432 337.299 270.354 336.7 270.197 336.225C270.048 335.743 269.807 335.382 269.475 335.141C269.143 334.9 268.71 334.779 268.176 334.779C267.388 334.779 266.815 335.049 266.457 335.59C266.105 336.13 265.93 336.941 265.93 338.021ZM282.141 332.377C283.306 332.377 284.243 332.696 284.953 333.334C285.663 333.965 286.018 334.981 286.018 336.381V343.5H283.039V337.123C283.039 336.342 282.896 335.753 282.609 335.355C282.329 334.958 281.887 334.76 281.281 334.76C280.37 334.76 279.748 335.069 279.416 335.688C279.084 336.306 278.918 337.198 278.918 338.363V343.5H275.939V332.582H278.215L278.615 333.979H278.781C279.016 333.601 279.305 333.295 279.65 333.061C280.002 332.826 280.389 332.654 280.812 332.543C281.242 332.432 281.685 332.377 282.141 332.377ZM296.701 340.258C296.701 341 296.525 341.628 296.174 342.143C295.829 342.65 295.311 343.038 294.621 343.305C293.931 343.565 293.072 343.695 292.043 343.695C291.281 343.695 290.627 343.646 290.08 343.549C289.54 343.451 288.993 343.288 288.439 343.061V340.6C289.032 340.867 289.667 341.088 290.344 341.264C291.027 341.433 291.626 341.518 292.141 341.518C292.72 341.518 293.133 341.433 293.381 341.264C293.635 341.088 293.762 340.86 293.762 340.58C293.762 340.398 293.71 340.235 293.605 340.092C293.508 339.942 293.293 339.776 292.961 339.594C292.629 339.405 292.108 339.161 291.398 338.861C290.715 338.575 290.152 338.285 289.709 337.992C289.273 337.699 288.947 337.354 288.732 336.957C288.524 336.553 288.42 336.042 288.42 335.424C288.42 334.415 288.811 333.656 289.592 333.148C290.38 332.634 291.431 332.377 292.746 332.377C293.423 332.377 294.068 332.445 294.68 332.582C295.298 332.719 295.933 332.937 296.584 333.236L295.686 335.385C295.145 335.15 294.634 334.958 294.152 334.809C293.677 334.659 293.192 334.584 292.697 334.584C292.261 334.584 291.932 334.643 291.711 334.76C291.49 334.877 291.379 335.056 291.379 335.297C291.379 335.473 291.434 335.629 291.545 335.766C291.662 335.902 291.883 336.055 292.209 336.225C292.541 336.387 293.026 336.599 293.664 336.859C294.283 337.113 294.82 337.38 295.275 337.66C295.731 337.934 296.083 338.275 296.33 338.686C296.577 339.089 296.701 339.613 296.701 340.258ZM312.678 343.5H304.455V329.223H312.678V331.703H307.482V334.838H312.316V337.318H307.482V341H312.678V343.5ZM319.904 332.357C321.369 332.357 322.492 332.676 323.273 333.314C324.055 333.952 324.445 334.923 324.445 336.225V343.5H322.365L321.789 342.016H321.711C321.398 342.406 321.079 342.725 320.754 342.973C320.428 343.22 320.054 343.402 319.631 343.52C319.208 343.637 318.693 343.695 318.088 343.695C317.443 343.695 316.864 343.572 316.35 343.324C315.842 343.077 315.441 342.699 315.148 342.191C314.855 341.677 314.709 341.026 314.709 340.238C314.709 339.079 315.116 338.227 315.93 337.68C316.743 337.126 317.964 336.82 319.592 336.762L321.486 336.703V336.225C321.486 335.652 321.337 335.232 321.037 334.965C320.738 334.698 320.321 334.564 319.787 334.564C319.26 334.564 318.742 334.639 318.234 334.789C317.727 334.939 317.219 335.128 316.711 335.355L315.725 333.344C316.304 333.038 316.952 332.797 317.668 332.621C318.391 332.445 319.136 332.357 319.904 332.357ZM321.486 338.441L320.334 338.48C319.37 338.507 318.7 338.679 318.322 338.998C317.951 339.317 317.766 339.737 317.766 340.258C317.766 340.714 317.899 341.039 318.166 341.234C318.433 341.423 318.781 341.518 319.211 341.518C319.849 341.518 320.386 341.329 320.822 340.951C321.265 340.574 321.486 340.036 321.486 339.34V338.441ZM335.139 340.258C335.139 341 334.963 341.628 334.611 342.143C334.266 342.65 333.749 343.038 333.059 343.305C332.368 343.565 331.509 343.695 330.48 343.695C329.719 343.695 329.064 343.646 328.518 343.549C327.977 343.451 327.43 343.288 326.877 343.061V340.6C327.469 340.867 328.104 341.088 328.781 341.264C329.465 341.433 330.064 341.518 330.578 341.518C331.158 341.518 331.571 341.433 331.818 341.264C332.072 341.088 332.199 340.86 332.199 340.58C332.199 340.398 332.147 340.235 332.043 340.092C331.945 339.942 331.73 339.776 331.398 339.594C331.066 339.405 330.546 339.161 329.836 338.861C329.152 338.575 328.589 338.285 328.146 337.992C327.71 337.699 327.385 337.354 327.17 336.957C326.962 336.553 326.857 336.042 326.857 335.424C326.857 334.415 327.248 333.656 328.029 333.148C328.817 332.634 329.868 332.377 331.184 332.377C331.861 332.377 332.505 332.445 333.117 332.582C333.736 332.719 334.37 332.937 335.021 333.236L334.123 335.385C333.583 335.15 333.072 334.958 332.59 334.809C332.115 334.659 331.63 334.584 331.135 334.584C330.699 334.584 330.37 334.643 330.148 334.76C329.927 334.877 329.816 335.056 329.816 335.297C329.816 335.473 329.872 335.629 329.982 335.766C330.1 335.902 330.321 336.055 330.646 336.225C330.979 336.387 331.464 336.599 332.102 336.859C332.72 337.113 333.257 337.38 333.713 337.66C334.169 337.934 334.52 338.275 334.768 338.686C335.015 339.089 335.139 339.613 335.139 340.258ZM340.441 332.582V343.5H337.463V332.582H340.441ZM338.957 328.305C339.4 328.305 339.781 328.409 340.1 328.617C340.419 328.819 340.578 329.2 340.578 329.76C340.578 330.313 340.419 330.697 340.1 330.912C339.781 331.12 339.4 331.225 338.957 331.225C338.508 331.225 338.124 331.12 337.805 330.912C337.492 330.697 337.336 330.313 337.336 329.76C337.336 329.2 337.492 328.819 337.805 328.617C338.124 328.409 338.508 328.305 338.957 328.305ZM346.555 343.5H343.576V328.305H346.555V343.5ZM348.127 332.582H351.389L353.449 338.725C353.514 338.92 353.57 339.118 353.615 339.32C353.661 339.522 353.7 339.73 353.732 339.945C353.765 340.16 353.791 340.385 353.811 340.619H353.869C353.908 340.268 353.96 339.939 354.025 339.633C354.097 339.327 354.185 339.024 354.289 338.725L356.311 332.582H359.504L354.885 344.896C354.605 345.652 354.24 346.28 353.791 346.781C353.342 347.289 352.824 347.67 352.238 347.924C351.659 348.178 351.021 348.305 350.324 348.305C349.986 348.305 349.693 348.285 349.445 348.246C349.198 348.214 348.986 348.178 348.811 348.139V345.775C348.947 345.808 349.12 345.837 349.328 345.863C349.536 345.889 349.755 345.902 349.982 345.902C350.399 345.902 350.757 345.814 351.057 345.639C351.356 345.463 351.607 345.225 351.809 344.926C352.01 344.633 352.17 344.311 352.287 343.959L352.463 343.422L348.127 332.582Z" fill="#0866FF"/>
<rect x="212.059" y="146.5" width="301" height="79" rx="39.5" fill="white"/>
<rect x="212.059" y="146.5" width="301" height="79" rx="39.5" stroke="#0866FF"/>
<path d="M243.684 186.037C243.104 186.037 242.59 186.151 242.141 186.379C241.698 186.6 241.324 186.923 241.018 187.346C240.718 187.769 240.49 188.28 240.334 188.879C240.178 189.478 240.1 190.152 240.1 190.9C240.1 191.91 240.223 192.772 240.471 193.488C240.725 194.198 241.115 194.742 241.643 195.119C242.17 195.49 242.85 195.676 243.684 195.676C244.263 195.676 244.842 195.611 245.422 195.48C246.008 195.35 246.643 195.165 247.326 194.924V197.463C246.695 197.723 246.073 197.909 245.461 198.02C244.849 198.137 244.162 198.195 243.4 198.195C241.929 198.195 240.718 197.893 239.768 197.287C238.824 196.675 238.124 195.822 237.668 194.729C237.212 193.628 236.984 192.346 236.984 190.881C236.984 189.8 237.131 188.811 237.424 187.912C237.717 187.014 238.146 186.236 238.713 185.578C239.279 184.921 239.979 184.413 240.812 184.055C241.646 183.697 242.603 183.518 243.684 183.518C244.393 183.518 245.103 183.609 245.812 183.791C246.529 183.967 247.212 184.211 247.863 184.523L246.887 186.984C246.353 186.73 245.816 186.509 245.275 186.32C244.735 186.132 244.204 186.037 243.684 186.037ZM260.061 192.521C260.061 193.433 259.937 194.24 259.689 194.943C259.449 195.646 259.094 196.242 258.625 196.73C258.163 197.212 257.603 197.577 256.945 197.824C256.294 198.072 255.559 198.195 254.738 198.195C253.97 198.195 253.264 198.072 252.619 197.824C251.981 197.577 251.424 197.212 250.949 196.73C250.48 196.242 250.116 195.646 249.855 194.943C249.602 194.24 249.475 193.433 249.475 192.521C249.475 191.311 249.689 190.285 250.119 189.445C250.549 188.605 251.161 187.967 251.955 187.531C252.749 187.095 253.697 186.877 254.797 186.877C255.819 186.877 256.724 187.095 257.512 187.531C258.306 187.967 258.928 188.605 259.377 189.445C259.833 190.285 260.061 191.311 260.061 192.521ZM252.512 192.521C252.512 193.238 252.59 193.84 252.746 194.328C252.902 194.816 253.146 195.184 253.479 195.432C253.811 195.679 254.243 195.803 254.777 195.803C255.305 195.803 255.731 195.679 256.057 195.432C256.389 195.184 256.63 194.816 256.779 194.328C256.936 193.84 257.014 193.238 257.014 192.521C257.014 191.799 256.936 191.2 256.779 190.725C256.63 190.243 256.389 189.882 256.057 189.641C255.725 189.4 255.292 189.279 254.758 189.279C253.97 189.279 253.397 189.549 253.039 190.09C252.688 190.63 252.512 191.441 252.512 192.521ZM268.723 186.877C269.888 186.877 270.826 187.196 271.535 187.834C272.245 188.465 272.6 189.481 272.6 190.881V198H269.621V191.623C269.621 190.842 269.478 190.253 269.191 189.855C268.911 189.458 268.469 189.26 267.863 189.26C266.952 189.26 266.33 189.569 265.998 190.188C265.666 190.806 265.5 191.698 265.5 192.863V198H262.521V187.082H264.797L265.197 188.479H265.363C265.598 188.101 265.887 187.795 266.232 187.561C266.584 187.326 266.971 187.154 267.395 187.043C267.824 186.932 268.267 186.877 268.723 186.877ZM281.867 186.877C283.033 186.877 283.97 187.196 284.68 187.834C285.389 188.465 285.744 189.481 285.744 190.881V198H282.766V191.623C282.766 190.842 282.622 190.253 282.336 189.855C282.056 189.458 281.613 189.26 281.008 189.26C280.096 189.26 279.475 189.569 279.143 190.188C278.811 190.806 278.645 191.698 278.645 192.863V198H275.666V187.082H277.941L278.342 188.479H278.508C278.742 188.101 279.032 187.795 279.377 187.561C279.729 187.326 280.116 187.154 280.539 187.043C280.969 186.932 281.411 186.877 281.867 186.877ZM293.312 186.877C294.322 186.877 295.191 187.072 295.92 187.463C296.649 187.847 297.212 188.407 297.609 189.143C298.007 189.878 298.205 190.777 298.205 191.838V193.283H291.164C291.197 194.123 291.447 194.784 291.916 195.266C292.391 195.741 293.049 195.979 293.889 195.979C294.585 195.979 295.223 195.907 295.803 195.764C296.382 195.62 296.978 195.406 297.59 195.119V197.424C297.049 197.691 296.483 197.886 295.891 198.01C295.305 198.133 294.592 198.195 293.752 198.195C292.658 198.195 291.688 197.993 290.842 197.59C290.002 197.186 289.341 196.571 288.859 195.744C288.384 194.917 288.146 193.876 288.146 192.619C288.146 191.343 288.361 190.282 288.791 189.436C289.227 188.583 289.833 187.945 290.607 187.521C291.382 187.092 292.284 186.877 293.312 186.877ZM293.332 188.996C292.753 188.996 292.271 189.182 291.887 189.553C291.509 189.924 291.291 190.507 291.232 191.301H295.412C295.406 190.858 295.324 190.464 295.168 190.119C295.018 189.774 294.79 189.501 294.484 189.299C294.185 189.097 293.801 188.996 293.332 188.996ZM305.061 198.195C303.98 198.195 303.059 198 302.297 197.609C301.535 197.212 300.956 196.6 300.559 195.773C300.161 194.947 299.963 193.889 299.963 192.6C299.963 191.265 300.188 190.178 300.637 189.338C301.092 188.492 301.721 187.87 302.521 187.473C303.329 187.076 304.263 186.877 305.324 186.877C306.079 186.877 306.73 186.952 307.277 187.102C307.831 187.245 308.312 187.417 308.723 187.619L307.844 189.924C307.375 189.735 306.939 189.582 306.535 189.465C306.132 189.341 305.728 189.279 305.324 189.279C304.803 189.279 304.37 189.403 304.025 189.65C303.68 189.891 303.423 190.256 303.254 190.744C303.085 191.232 303 191.844 303 192.58C303 193.303 303.091 193.902 303.273 194.377C303.456 194.852 303.719 195.207 304.064 195.441C304.41 195.669 304.829 195.783 305.324 195.783C305.943 195.783 306.493 195.702 306.975 195.539C307.456 195.37 307.925 195.135 308.381 194.836V197.385C307.925 197.671 307.447 197.876 306.945 198C306.451 198.13 305.822 198.195 305.061 198.195ZM315.52 195.822C315.845 195.822 316.161 195.79 316.467 195.725C316.779 195.66 317.089 195.578 317.395 195.48V197.697C317.076 197.84 316.678 197.958 316.203 198.049C315.734 198.146 315.22 198.195 314.66 198.195C314.009 198.195 313.423 198.091 312.902 197.883C312.388 197.668 311.981 197.3 311.682 196.779C311.389 196.252 311.242 195.52 311.242 194.582V189.318H309.816V188.059L311.457 187.062L312.316 184.758H314.221V187.082H317.277V189.318H314.221V194.582C314.221 194.999 314.338 195.311 314.572 195.52C314.813 195.721 315.129 195.822 315.52 195.822ZM333.781 198L332.941 194.182C332.896 193.954 332.821 193.618 332.717 193.176C332.613 192.727 332.499 192.248 332.375 191.74C332.258 191.226 332.147 190.751 332.043 190.314C331.945 189.878 331.874 189.559 331.828 189.357H331.74C331.695 189.559 331.623 189.878 331.525 190.314C331.428 190.751 331.317 191.226 331.193 191.74C331.076 192.255 330.965 192.74 330.861 193.195C330.757 193.645 330.679 193.986 330.627 194.221L329.748 198H326.545L323.439 187.082H326.408L327.668 191.916C327.753 192.255 327.834 192.658 327.912 193.127C327.99 193.589 328.059 194.038 328.117 194.475C328.182 194.904 328.231 195.246 328.264 195.5H328.342C328.355 195.311 328.381 195.061 328.42 194.748C328.465 194.436 328.514 194.113 328.566 193.781C328.625 193.443 328.677 193.14 328.723 192.873C328.775 192.6 328.814 192.414 328.84 192.316L330.188 187.082H333.469L334.748 192.316C334.794 192.505 334.852 192.805 334.924 193.215C335.002 193.625 335.07 194.048 335.129 194.484C335.188 194.914 335.22 195.253 335.227 195.5H335.305C335.331 195.279 335.376 194.95 335.441 194.514C335.507 194.077 335.581 193.622 335.666 193.146C335.757 192.665 335.848 192.255 335.939 191.916L337.248 187.082H340.168L337.023 198H333.781ZM344.914 187.082V198H341.936V187.082H344.914ZM343.43 182.805C343.872 182.805 344.253 182.909 344.572 183.117C344.891 183.319 345.051 183.7 345.051 184.26C345.051 184.813 344.891 185.197 344.572 185.412C344.253 185.62 343.872 185.725 343.43 185.725C342.98 185.725 342.596 185.62 342.277 185.412C341.965 185.197 341.809 184.813 341.809 184.26C341.809 183.7 341.965 183.319 342.277 183.117C342.596 182.909 342.98 182.805 343.43 182.805ZM352.648 195.822C352.974 195.822 353.29 195.79 353.596 195.725C353.908 195.66 354.217 195.578 354.523 195.48V197.697C354.204 197.84 353.807 197.958 353.332 198.049C352.863 198.146 352.349 198.195 351.789 198.195C351.138 198.195 350.552 198.091 350.031 197.883C349.517 197.668 349.11 197.3 348.811 196.779C348.518 196.252 348.371 195.52 348.371 194.582V189.318H346.945V188.059L348.586 187.062L349.445 184.758H351.35V187.082H354.406V189.318H351.35V194.582C351.35 194.999 351.467 195.311 351.701 195.52C351.942 195.721 352.258 195.822 352.648 195.822ZM359.719 182.805V185.9C359.719 186.441 359.699 186.955 359.66 187.443C359.628 187.932 359.602 188.277 359.582 188.479H359.738C359.973 188.101 360.249 187.795 360.568 187.561C360.894 187.326 361.252 187.154 361.643 187.043C362.033 186.932 362.453 186.877 362.902 186.877C363.69 186.877 364.377 187.017 364.963 187.297C365.549 187.57 366.005 188.003 366.33 188.596C366.656 189.182 366.818 189.943 366.818 190.881V198H363.84V191.623C363.84 190.842 363.697 190.253 363.41 189.855C363.124 189.458 362.681 189.26 362.082 189.26C361.483 189.26 361.011 189.4 360.666 189.68C360.321 189.953 360.077 190.36 359.934 190.9C359.79 191.434 359.719 192.089 359.719 192.863V198H356.74V182.805H359.719ZM379.875 183.723C381.717 183.723 383.062 184.12 383.908 184.914C384.755 185.702 385.178 186.789 385.178 188.176C385.178 188.801 385.083 189.4 384.895 189.973C384.706 190.539 384.396 191.044 383.967 191.486C383.544 191.929 382.977 192.281 382.268 192.541C381.558 192.795 380.682 192.922 379.641 192.922H378.342V198H375.314V183.723H379.875ZM379.719 186.203H378.342V190.441H379.338C379.904 190.441 380.396 190.367 380.812 190.217C381.229 190.067 381.551 189.833 381.779 189.514C382.007 189.195 382.121 188.785 382.121 188.283C382.121 187.58 381.926 187.059 381.535 186.721C381.145 186.376 380.539 186.203 379.719 186.203ZM390.617 182.805V185.9C390.617 186.441 390.598 186.955 390.559 187.443C390.526 187.932 390.5 188.277 390.48 188.479H390.637C390.871 188.101 391.148 187.795 391.467 187.561C391.792 187.326 392.15 187.154 392.541 187.043C392.932 186.932 393.352 186.877 393.801 186.877C394.589 186.877 395.275 187.017 395.861 187.297C396.447 187.57 396.903 188.003 397.229 188.596C397.554 189.182 397.717 189.943 397.717 190.881V198H394.738V191.623C394.738 190.842 394.595 190.253 394.309 189.855C394.022 189.458 393.579 189.26 392.98 189.26C392.382 189.26 391.91 189.4 391.564 189.68C391.219 189.953 390.975 190.36 390.832 190.9C390.689 191.434 390.617 192.089 390.617 192.863V198H387.639V182.805H390.617ZM405.256 186.857C406.721 186.857 407.844 187.176 408.625 187.814C409.406 188.452 409.797 189.423 409.797 190.725V198H407.717L407.141 196.516H407.062C406.75 196.906 406.431 197.225 406.105 197.473C405.78 197.72 405.406 197.902 404.982 198.02C404.559 198.137 404.045 198.195 403.439 198.195C402.795 198.195 402.215 198.072 401.701 197.824C401.193 197.577 400.793 197.199 400.5 196.691C400.207 196.177 400.061 195.526 400.061 194.738C400.061 193.579 400.467 192.727 401.281 192.18C402.095 191.626 403.316 191.32 404.943 191.262L406.838 191.203V190.725C406.838 190.152 406.688 189.732 406.389 189.465C406.089 189.198 405.673 189.064 405.139 189.064C404.611 189.064 404.094 189.139 403.586 189.289C403.078 189.439 402.57 189.628 402.062 189.855L401.076 187.844C401.656 187.538 402.303 187.297 403.02 187.121C403.742 186.945 404.488 186.857 405.256 186.857ZM406.838 192.941L405.686 192.98C404.722 193.007 404.051 193.179 403.674 193.498C403.303 193.817 403.117 194.237 403.117 194.758C403.117 195.214 403.251 195.539 403.518 195.734C403.785 195.923 404.133 196.018 404.562 196.018C405.201 196.018 405.738 195.829 406.174 195.451C406.617 195.074 406.838 194.536 406.838 193.84V192.941ZM418.967 186.877C419.117 186.877 419.289 186.887 419.484 186.906C419.686 186.919 419.849 186.939 419.973 186.965L419.748 189.758C419.65 189.725 419.51 189.702 419.328 189.689C419.152 189.67 418.999 189.66 418.869 189.66C418.485 189.66 418.111 189.709 417.746 189.807C417.388 189.904 417.066 190.064 416.779 190.285C416.493 190.5 416.265 190.786 416.096 191.145C415.933 191.496 415.852 191.929 415.852 192.443V198H412.873V187.082H415.129L415.568 188.918H415.715C415.93 188.547 416.197 188.208 416.516 187.902C416.841 187.59 417.209 187.342 417.619 187.16C418.036 186.971 418.485 186.877 418.967 186.877ZM434.777 186.877C436.014 186.877 436.949 187.196 437.58 187.834C438.218 188.465 438.537 189.481 438.537 190.881V198H435.549V191.623C435.549 190.842 435.415 190.253 435.148 189.855C434.882 189.458 434.468 189.26 433.908 189.26C433.12 189.26 432.561 189.543 432.229 190.109C431.896 190.669 431.73 191.473 431.73 192.521V198H428.752V191.623C428.752 191.102 428.693 190.666 428.576 190.314C428.459 189.963 428.28 189.699 428.039 189.523C427.798 189.348 427.489 189.26 427.111 189.26C426.558 189.26 426.122 189.4 425.803 189.68C425.49 189.953 425.266 190.36 425.129 190.9C424.999 191.434 424.934 192.089 424.934 192.863V198H421.955V187.082H424.23L424.631 188.479H424.797C425.018 188.101 425.295 187.795 425.627 187.561C425.965 187.326 426.337 187.154 426.74 187.043C427.144 186.932 427.554 186.877 427.971 186.877C428.771 186.877 429.449 187.007 430.002 187.268C430.562 187.528 430.992 187.932 431.291 188.479H431.555C431.88 187.919 432.339 187.512 432.932 187.258C433.531 187.004 434.146 186.877 434.777 186.877ZM446.076 186.857C447.541 186.857 448.664 187.176 449.445 187.814C450.227 188.452 450.617 189.423 450.617 190.725V198H448.537L447.961 196.516H447.883C447.57 196.906 447.251 197.225 446.926 197.473C446.6 197.72 446.226 197.902 445.803 198.02C445.38 198.137 444.865 198.195 444.26 198.195C443.615 198.195 443.036 198.072 442.521 197.824C442.014 197.577 441.613 197.199 441.32 196.691C441.027 196.177 440.881 195.526 440.881 194.738C440.881 193.579 441.288 192.727 442.102 192.18C442.915 191.626 444.136 191.32 445.764 191.262L447.658 191.203V190.725C447.658 190.152 447.508 189.732 447.209 189.465C446.91 189.198 446.493 189.064 445.959 189.064C445.432 189.064 444.914 189.139 444.406 189.289C443.898 189.439 443.391 189.628 442.883 189.855L441.896 187.844C442.476 187.538 443.124 187.297 443.84 187.121C444.562 186.945 445.308 186.857 446.076 186.857ZM447.658 192.941L446.506 192.98C445.542 193.007 444.872 193.179 444.494 193.498C444.123 193.817 443.938 194.237 443.938 194.758C443.938 195.214 444.071 195.539 444.338 195.734C444.605 195.923 444.953 196.018 445.383 196.018C446.021 196.018 446.558 195.829 446.994 195.451C447.437 195.074 447.658 194.536 447.658 193.84V192.941ZM458.127 198.195C457.046 198.195 456.125 198 455.363 197.609C454.602 197.212 454.022 196.6 453.625 195.773C453.228 194.947 453.029 193.889 453.029 192.6C453.029 191.265 453.254 190.178 453.703 189.338C454.159 188.492 454.787 187.87 455.588 187.473C456.395 187.076 457.329 186.877 458.391 186.877C459.146 186.877 459.797 186.952 460.344 187.102C460.897 187.245 461.379 187.417 461.789 187.619L460.91 189.924C460.441 189.735 460.005 189.582 459.602 189.465C459.198 189.341 458.794 189.279 458.391 189.279C457.87 189.279 457.437 189.403 457.092 189.65C456.747 189.891 456.49 190.256 456.32 190.744C456.151 191.232 456.066 191.844 456.066 192.58C456.066 193.303 456.158 193.902 456.34 194.377C456.522 194.852 456.786 195.207 457.131 195.441C457.476 195.669 457.896 195.783 458.391 195.783C459.009 195.783 459.559 195.702 460.041 195.539C460.523 195.37 460.992 195.135 461.447 194.836V197.385C460.992 197.671 460.513 197.876 460.012 198C459.517 198.13 458.889 198.195 458.127 198.195ZM466.965 187.082V198H463.986V187.082H466.965ZM465.48 182.805C465.923 182.805 466.304 182.909 466.623 183.117C466.942 183.319 467.102 183.7 467.102 184.26C467.102 184.813 466.942 185.197 466.623 185.412C466.304 185.62 465.923 185.725 465.48 185.725C465.031 185.725 464.647 185.62 464.328 185.412C464.016 185.197 463.859 184.813 463.859 184.26C463.859 183.7 464.016 183.319 464.328 183.117C464.647 182.909 465.031 182.805 465.48 182.805ZM474.602 186.877C475.611 186.877 476.48 187.072 477.209 187.463C477.938 187.847 478.501 188.407 478.898 189.143C479.296 189.878 479.494 190.777 479.494 191.838V193.283H472.453C472.486 194.123 472.736 194.784 473.205 195.266C473.68 195.741 474.338 195.979 475.178 195.979C475.874 195.979 476.512 195.907 477.092 195.764C477.671 195.62 478.267 195.406 478.879 195.119V197.424C478.339 197.691 477.772 197.886 477.18 198.01C476.594 198.133 475.881 198.195 475.041 198.195C473.947 198.195 472.977 197.993 472.131 197.59C471.291 197.186 470.63 196.571 470.148 195.744C469.673 194.917 469.436 193.876 469.436 192.619C469.436 191.343 469.65 190.282 470.08 189.436C470.516 188.583 471.122 187.945 471.896 187.521C472.671 187.092 473.573 186.877 474.602 186.877ZM474.621 188.996C474.042 188.996 473.56 189.182 473.176 189.553C472.798 189.924 472.58 190.507 472.521 191.301H476.701C476.695 190.858 476.613 190.464 476.457 190.119C476.307 189.774 476.079 189.501 475.773 189.299C475.474 189.097 475.09 188.996 474.621 188.996ZM489.533 194.758C489.533 195.5 489.357 196.128 489.006 196.643C488.661 197.15 488.143 197.538 487.453 197.805C486.763 198.065 485.904 198.195 484.875 198.195C484.113 198.195 483.459 198.146 482.912 198.049C482.372 197.951 481.825 197.788 481.271 197.561V195.1C481.864 195.367 482.499 195.588 483.176 195.764C483.859 195.933 484.458 196.018 484.973 196.018C485.552 196.018 485.965 195.933 486.213 195.764C486.467 195.588 486.594 195.36 486.594 195.08C486.594 194.898 486.542 194.735 486.438 194.592C486.34 194.442 486.125 194.276 485.793 194.094C485.461 193.905 484.94 193.661 484.23 193.361C483.547 193.075 482.984 192.785 482.541 192.492C482.105 192.199 481.779 191.854 481.564 191.457C481.356 191.053 481.252 190.542 481.252 189.924C481.252 188.915 481.643 188.156 482.424 187.648C483.212 187.134 484.263 186.877 485.578 186.877C486.255 186.877 486.9 186.945 487.512 187.082C488.13 187.219 488.765 187.437 489.416 187.736L488.518 189.885C487.977 189.65 487.466 189.458 486.984 189.309C486.509 189.159 486.024 189.084 485.529 189.084C485.093 189.084 484.764 189.143 484.543 189.26C484.322 189.377 484.211 189.556 484.211 189.797C484.211 189.973 484.266 190.129 484.377 190.266C484.494 190.402 484.715 190.555 485.041 190.725C485.373 190.887 485.858 191.099 486.496 191.359C487.115 191.613 487.652 191.88 488.107 192.16C488.563 192.434 488.915 192.775 489.162 193.186C489.41 193.589 489.533 194.113 489.533 194.758Z" fill="#0866FF"/>
<path d="M593.634 264.822L594.629 264.914L593.634 264.822ZM524.36 194.797C524.36 197.743 521.972 200.131 519.026 200.131C516.081 200.131 513.693 197.743 513.693 194.797C513.693 191.852 516.081 189.464 519.026 189.464C521.972 189.464 524.36 191.852 524.36 194.797ZM519.026 194.797C519.028 193.797 519.028 193.797 519.028 193.797C519.028 193.797 519.028 193.797 519.028 193.797C519.028 193.797 519.028 193.797 519.029 193.797C519.029 193.797 519.03 193.797 519.03 193.797C519.032 193.797 519.034 193.798 519.036 193.798C519.041 193.798 519.048 193.798 519.057 193.798C519.076 193.798 519.103 193.798 519.137 193.798C519.207 193.799 519.31 193.8 519.444 193.803C519.711 193.808 520.104 193.819 520.61 193.839C521.623 193.879 523.089 193.959 524.917 194.118L524.744 196.11C522.95 195.955 521.515 195.877 520.53 195.837C520.038 195.818 519.659 195.808 519.404 195.803C519.277 195.8 519.181 195.799 519.117 195.798C519.085 195.798 519.061 195.798 519.046 195.798C519.038 195.798 519.033 195.798 519.029 195.797C519.027 195.797 519.026 195.797 519.025 195.797C519.025 195.797 519.025 195.797 519.025 195.797C519.025 195.797 519.025 195.797 519.025 195.797C519.025 195.797 519.025 195.797 519.025 195.797C519.025 195.797 519.025 195.797 519.026 194.797ZM536.594 195.734C540.143 196.408 544.033 197.316 548.067 198.541L547.486 200.455C543.53 199.253 539.711 198.361 536.221 197.699L536.594 195.734ZM559.133 202.665C562.656 204.251 566.16 206.122 569.52 208.331L568.421 210.002C565.161 207.859 561.752 206.037 558.312 204.489L559.133 202.665ZM578.772 215.753C581.54 218.471 584.077 221.528 586.282 224.963L584.599 226.043C582.48 222.742 580.039 219.801 577.371 217.18L578.772 215.753ZM591.516 235.638C592.782 239.183 593.738 243.022 594.326 247.179L592.345 247.459C591.776 243.431 590.852 239.724 589.632 236.311L591.516 235.638ZM594.977 258.996C594.931 260.913 594.817 262.885 594.629 264.914L592.638 264.73C592.821 262.745 592.933 260.819 592.978 258.949L594.977 258.996ZM594.629 264.914C594.436 267.01 594.162 269.051 593.812 271.041L591.842 270.694C592.183 268.76 592.449 266.772 592.638 264.73L594.629 264.914ZM590.651 282.802C589.201 286.724 587.411 290.399 585.315 293.84L583.607 292.8C585.636 289.468 587.371 285.909 588.775 282.108L590.651 282.802ZM578.005 303.642C575.301 306.652 572.326 309.435 569.121 312.009L567.869 310.449C570.996 307.938 573.891 305.229 576.518 302.305L578.005 303.642ZM559.095 318.965C555.67 321.025 552.071 322.91 548.33 324.636L547.492 322.82C551.173 321.122 554.707 319.27 558.064 317.251L559.095 318.965ZM537.078 329.216C533.307 330.567 529.436 331.786 525.492 332.886L524.955 330.959C528.857 329.871 532.682 328.666 536.403 327.333L537.078 329.216ZM513.716 335.781C509.783 336.628 505.805 337.373 501.806 338.026L501.484 336.052C505.452 335.404 509.397 334.665 513.295 333.826L513.716 335.781ZM489.809 339.714C485.784 340.194 481.762 340.592 477.768 340.917L477.605 338.924C481.577 338.6 485.574 338.205 489.572 337.728L489.809 339.714ZM465.673 341.697C461.573 341.894 457.53 342.023 453.571 342.095L453.534 340.095C457.475 340.023 461.498 339.895 465.576 339.699L465.673 341.697ZM441.509 342.148C437.305 342.11 433.243 342.015 429.361 341.881L429.43 339.882C433.296 340.016 437.342 340.11 441.527 340.148L441.509 342.148ZM417.308 341.314C412.901 341.053 408.859 340.754 405.267 340.452L405.435 338.459C409.012 338.76 413.037 339.057 417.427 339.318L417.308 341.314ZM393.149 339.263C391.251 339.047 389.773 338.864 388.768 338.734C388.266 338.67 387.883 338.618 387.624 338.583C387.494 338.565 387.396 338.552 387.33 338.542C387.297 338.538 387.272 338.534 387.255 338.532C387.247 338.531 387.24 338.53 387.236 338.529C387.234 338.529 387.232 338.528 387.231 338.528C387.23 338.528 387.23 338.528 387.23 338.528C387.229 338.528 387.229 338.528 387.229 338.528C387.229 338.528 387.229 338.528 387.229 338.528C387.229 338.528 387.229 338.528 387.371 337.538C387.513 336.548 387.513 336.548 387.513 336.548C387.513 336.548 387.513 336.548 387.513 336.548C387.513 336.548 387.513 336.548 387.513 336.548C387.513 336.548 387.513 336.548 387.514 336.548C387.515 336.549 387.516 336.549 387.518 336.549C387.522 336.55 387.528 336.55 387.536 336.551C387.551 336.554 387.575 336.557 387.607 336.562C387.671 336.57 387.767 336.584 387.894 336.601C388.148 336.636 388.527 336.687 389.025 336.751C390.019 336.879 391.487 337.061 393.374 337.275L393.149 339.263Z" fill="#0866FF"/>
<path d="M2.29549 114.156L1.29972 114.248L2.29549 114.156ZM71.5695 44.1312C71.5695 47.0767 73.9573 49.4645 76.9028 49.4645C79.8483 49.4645 82.2361 47.0767 82.2361 44.1312C82.2361 41.1856 79.8483 38.7978 76.9028 38.7978C73.9573 38.7978 71.5695 41.1856 71.5695 44.1312ZM76.9028 44.1312C76.9015 43.1312 76.9014 43.1312 76.9013 43.1312C76.9013 43.1312 76.9012 43.1312 76.9011 43.1312C76.901 43.1312 76.9008 43.1312 76.9006 43.1312C76.9001 43.1312 76.8995 43.1312 76.8988 43.1312C76.8974 43.1312 76.8954 43.1312 76.8929 43.1312C76.8879 43.1312 76.8808 43.1312 76.8716 43.1313C76.8532 43.1314 76.8265 43.1316 76.7916 43.132C76.7217 43.1327 76.6192 43.1341 76.4853 43.1367C76.2177 43.142 75.8249 43.1524 75.3187 43.1726C74.3063 43.2131 72.8398 43.2931 71.0124 43.4515L71.185 45.444C72.9787 45.2886 74.4142 45.2104 75.3986 45.171C75.8908 45.1513 76.2701 45.1414 76.5249 45.1363C76.6523 45.1338 76.7486 45.1325 76.8123 45.1318C76.8441 45.1315 76.8678 45.1313 76.8832 45.1313C76.8909 45.1312 76.8965 45.1312 76.8999 45.1312C76.9017 45.1312 76.9029 45.1312 76.9036 45.1312C76.904 45.1312 76.9042 45.1312 76.9043 45.1312C76.9043 45.1312 76.9043 45.1312 76.9043 45.1312C76.9043 45.1312 76.9042 45.1312 76.9042 45.1312C76.9042 45.1312 76.9041 45.1312 76.9028 44.1312ZM59.3348 45.068C55.7859 45.7414 51.8959 46.6497 47.8619 47.8749L48.4432 49.7886C52.399 48.5871 56.2184 47.695 59.7076 47.0329L59.3348 45.068ZM36.7965 51.9985C33.2728 53.5843 29.7691 55.4557 26.4092 57.6645L27.5079 59.3357C30.7683 57.1922 34.1773 55.3704 37.6173 53.8224L36.7965 51.9985ZM17.1568 65.0867C14.3893 67.8051 11.8522 70.8613 9.6474 74.2964L11.3305 75.3767C13.4493 72.0756 15.89 69.1345 18.5583 66.5135L17.1568 65.0867ZM4.41338 84.9716C3.14714 88.5164 2.19076 92.3556 1.60335 96.5124L3.58367 96.7922C4.15275 92.7651 5.07748 89.0579 6.29683 85.6443L4.41338 84.9716ZM0.95206 108.33C0.997752 110.247 1.11236 112.219 1.29972 114.248L3.29125 114.064C3.10793 112.079 2.99606 110.152 2.95149 108.282L0.95206 108.33ZM1.29972 114.248C1.49327 116.343 1.76679 118.385 2.11709 120.374L4.08678 120.028C3.74619 118.093 3.47987 116.106 3.29125 114.064L1.29972 114.248ZM5.27769 132.135C6.72769 136.058 8.51854 139.733 10.6137 143.174L12.3219 142.134C10.2929 138.801 8.55847 135.242 7.15362 131.442L5.27769 132.135ZM17.9238 152.976C20.6281 155.986 23.6027 158.769 26.8084 161.342L28.0603 159.783C24.9328 157.272 22.0382 154.562 19.4115 151.639L17.9238 152.976ZM36.8343 168.299C40.2595 170.358 43.8585 172.244 47.5989 173.969L48.4366 172.153C44.7561 170.456 41.2222 168.603 37.8649 166.585L36.8343 168.299ZM58.8515 178.55C62.6221 179.9 66.493 181.12 70.437 182.219L70.974 180.293C67.0722 179.205 63.2475 178 59.5259 176.667L58.8515 178.55ZM82.2132 185.115C86.1461 185.962 90.1241 186.707 94.1227 187.36L94.445 185.386C90.4768 184.738 86.532 183.999 82.6343 183.16L82.2132 185.115ZM106.12 189.048C110.145 189.528 114.167 189.926 118.161 190.251L118.324 188.258C114.352 187.934 110.355 187.539 106.357 187.062L106.12 189.048ZM130.257 191.03C134.356 191.227 138.399 191.356 142.358 191.428L142.395 189.429C138.454 189.357 134.431 189.229 130.353 189.033L130.257 191.03ZM154.42 191.481C158.624 191.443 162.686 191.349 166.568 191.214L166.499 189.216C162.633 189.35 158.587 189.444 154.402 189.481L154.42 191.481ZM178.621 190.648C183.028 190.387 187.07 190.088 190.662 189.785L190.494 187.792C186.917 188.094 182.892 188.391 178.502 188.651L178.621 190.648ZM202.78 188.596C204.679 188.381 206.156 188.198 207.161 188.068C207.663 188.003 208.047 187.952 208.305 187.916C208.435 187.899 208.533 187.885 208.599 187.876C208.632 187.871 208.657 187.868 208.674 187.865C208.682 187.864 208.689 187.863 208.693 187.863C208.695 187.862 208.697 187.862 208.698 187.862C208.699 187.862 208.699 187.862 208.699 187.862C208.7 187.862 208.7 187.862 208.7 187.862C208.7 187.862 208.7 187.862 208.7 187.862C208.7 187.862 208.7 187.862 208.558 186.872C208.416 185.882 208.416 185.882 208.416 185.882C208.416 185.882 208.416 185.882 208.416 185.882C208.416 185.882 208.416 185.882 208.416 185.882C208.416 185.882 208.416 185.882 208.415 185.882C208.414 185.882 208.413 185.882 208.411 185.883C208.407 185.883 208.401 185.884 208.394 185.885C208.378 185.887 208.354 185.891 208.322 185.895C208.258 185.904 208.162 185.917 208.035 185.935C207.781 185.969 207.402 186.02 206.904 186.085C205.91 186.213 204.442 186.395 202.555 186.609L202.78 188.596Z" fill="#0866FF"/>
</svg>
