<svg width="64" height="64" viewBox="0 0 64 64" fill="none" xmlns="http://www.w3.org/2000/svg">
<g clip-path="url(#clip0_181_114)">
<mask id="mask0_181_114" style="mask-type:luminance" maskUnits="userSpaceOnUse" x="0" y="0" width="64" height="64">
<path d="M64 0H0V64H64V0Z" fill="white"/>
</mask>
<g mask="url(#mask0_181_114)">
<path d="M61 32C61 48.0163 48.0163 61 32 61C15.9837 61 3 48.0163 3 32C3 15.9837 15.9837 3 32 3C48.0163 3 61 15.9837 61 32Z" fill="#0866FF" stroke="#0866FF" stroke-width="2"/>
<path d="M46.9092 28.0204C47.891 27.0386 47.7372 25.2929 46.5657 24.1213C45.3941 22.9497 43.6484 22.7959 42.6666 23.7778L17.7776 48.6667C16.7958 49.6486 16.9496 51.3942 18.1212 52.5658C19.2927 53.7374 21.0384 53.8912 22.0203 52.9094L46.9092 28.0204Z" fill="white"/>
<path d="M22.0204 23.7778C21.0386 22.7959 19.2929 22.9498 18.1213 24.1213C16.9497 25.2929 16.7959 27.0386 17.7778 28.0204L42.6667 52.9094C43.6486 53.8912 45.3943 53.7374 46.5658 52.5658C47.7374 51.3943 47.8912 49.6486 46.9094 48.6667L22.0204 23.7778Z" fill="white"/>
<path d="M29.3398 36C32.464 36 32.2156 36 35.3398 36C35.3398 36 35.3398 38.6896 35.3398 49.4482C35.3398 60.2068 36.3398 62 36.3398 62H32.3398H28.3398C28.3398 62 29.3398 60.2068 29.3398 49.4482C29.3398 38.6896 29.3398 36 29.3398 36Z" fill="white"/>
<path d="M32.3398 31.26C33.9967 31.26 35.3398 29.9169 35.3398 28.26C35.3398 26.6032 33.9967 25.26 32.3398 25.26C30.683 25.26 29.3398 26.6032 29.3398 28.26C29.3398 29.9169 30.683 31.26 32.3398 31.26Z" fill="white"/>
</g>
</g>
<defs>
<clipPath id="clip0_181_114">
<rect width="64" height="64" fill="white"/>
</clipPath>
</defs>
</svg>
